<svg width="23" height="23" viewBox="0 0 23 23" fill="none" xmlns="http://www.w3.org/2000/svg">
<g filter="url(#filter0_d)">
<path d="M15.8438 9.29201C15.5367 8.97226 15.1663 8.8013 14.7738 8.8013C14.3844 8.8013 14.0108 8.96909 13.691 9.28884L12.6906 10.2861C12.6083 10.2418 12.526 10.2006 12.4469 10.1595C12.3329 10.1025 12.2253 10.0486 12.1334 9.99166C11.1963 9.39648 10.3447 8.62085 9.52794 7.61727C9.13221 7.11707 8.86628 6.69601 8.67316 6.26862C8.93276 6.03118 9.17337 5.78424 9.40764 5.54681C9.49628 5.45816 9.58493 5.36635 9.67357 5.27771C10.3384 4.61288 10.3384 3.75177 9.67357 3.08694L8.80929 2.22266C8.71115 2.12452 8.60985 2.02321 8.51487 1.9219C8.32492 1.72562 8.12547 1.52301 7.91969 1.33306C7.6126 1.02913 7.24536 0.867676 6.85913 0.867676C6.47289 0.867676 6.09932 1.02913 5.78274 1.33306C5.77957 1.33622 5.77957 1.33622 5.77641 1.33939L4.70002 2.42528C4.29479 2.8305 4.06368 3.32438 4.01303 3.8974C3.93705 4.82183 4.20931 5.68294 4.41826 6.24646C4.93112 7.62994 5.69726 8.91211 6.84013 10.2861C8.22678 11.9418 9.89518 13.2493 11.801 14.1706C12.5292 14.5157 13.5011 14.9241 14.587 14.9937C14.6535 14.9969 14.7231 15 14.7864 15C15.5177 15 16.1319 14.7373 16.6131 14.2149C16.6163 14.2086 16.6226 14.2054 16.6258 14.1991C16.7904 13.9996 16.9804 13.8192 17.1798 13.6261C17.3159 13.4963 17.4552 13.3601 17.5914 13.2177C17.9048 12.8916 18.0694 12.5117 18.0694 12.1223C18.0694 11.7297 17.9016 11.353 17.5819 11.0364L15.8438 9.29201ZM16.9772 12.6257C16.974 12.6257 16.974 12.6288 16.9772 12.6257C16.8537 12.7586 16.7271 12.8789 16.591 13.0119C16.3852 13.2082 16.1762 13.4139 15.98 13.6451C15.6602 13.987 15.2835 14.1484 14.7896 14.1484C14.7421 14.1484 14.6914 14.1484 14.644 14.1453C13.7037 14.0851 12.8299 13.7179 12.1746 13.4045C10.3827 12.537 8.80929 11.3055 7.5018 9.74473C6.42224 8.44356 5.70043 7.24054 5.22238 5.94887C4.92796 5.16057 4.82032 4.5464 4.86781 3.96705C4.89947 3.59664 5.04193 3.28955 5.3047 3.02679L6.38425 1.94723C6.53938 1.8016 6.704 1.72246 6.86546 1.72246C7.06491 1.72246 7.22637 1.84276 7.32768 1.94407C7.33084 1.94723 7.33401 1.9504 7.33717 1.95356C7.53029 2.13402 7.71391 2.3208 7.90703 2.52025C8.00517 2.62156 8.10647 2.72287 8.20778 2.82734L9.07206 3.69162C9.40764 4.0272 9.40764 4.33745 9.07206 4.67303C8.98025 4.76484 8.89161 4.85665 8.7998 4.94529C8.53386 5.21756 8.2806 5.47083 8.00517 5.71776C7.99884 5.72409 7.9925 5.72726 7.98934 5.73359C7.71708 6.00585 7.76773 6.27179 7.82471 6.45224C7.82788 6.46174 7.83105 6.47123 7.83421 6.48073C8.05899 7.02526 8.37557 7.53813 8.85678 8.14914L8.85995 8.1523C9.73372 9.22869 10.655 10.0676 11.6712 10.7103C11.801 10.7926 11.934 10.8591 12.0606 10.9224C12.1746 10.9794 12.2822 11.0332 12.374 11.0902C12.3867 11.0965 12.3994 11.106 12.412 11.1124C12.5197 11.1662 12.621 11.1915 12.7255 11.1915C12.9882 11.1915 13.1528 11.0269 13.2067 10.9731L14.2894 9.89036C14.397 9.78272 14.568 9.65292 14.7674 9.65292C14.9637 9.65292 15.1252 9.77638 15.2233 9.88402C15.2265 9.88719 15.2265 9.88719 15.2296 9.89036L16.974 11.6347C17.3001 11.9577 17.3001 12.2901 16.9772 12.6257Z" fill="#949494"/>
<path d="M12.0955 3.56805C12.9249 3.70735 13.6784 4.09992 14.2799 4.70143C14.8814 5.30294 15.2708 6.05641 15.4133 6.88587C15.4481 7.09481 15.6286 7.24044 15.8343 7.24044C15.8597 7.24044 15.8818 7.23728 15.9071 7.23411C16.1414 7.19612 16.2966 6.97451 16.2586 6.74024C16.0876 5.73666 15.6127 4.82173 14.8877 4.09675C14.1628 3.37177 13.2478 2.89689 12.2442 2.72594C12.01 2.68795 11.7915 2.84307 11.7504 3.07418C11.7092 3.30529 11.8612 3.53006 12.0955 3.56805Z" fill="#949494"/>
<path d="M18.9717 6.61682C18.6899 4.96424 17.9111 3.46046 16.7144 2.26377C15.5177 1.06708 14.014 0.288277 12.3614 0.00651579C12.1303 -0.0346403 11.9118 0.123652 11.8707 0.35476C11.8327 0.589033 11.9878 0.807476 12.2221 0.848633C13.6974 1.09873 15.0429 1.79839 16.1129 2.86528C17.183 3.93534 17.8795 5.28083 18.1296 6.75611C18.1644 6.96506 18.3448 7.11069 18.5506 7.11069C18.576 7.11069 18.5981 7.10752 18.6234 7.10436C18.8545 7.06953 19.0128 6.84792 18.9717 6.61682Z" fill="#949494"/>
</g>
<defs>
<filter id="filter0_d" x="0" y="0" width="22.9782" height="23" filterUnits="userSpaceOnUse" color-interpolation-filters="sRGB">
<feFlood flood-opacity="0" result="BackgroundImageFix"/>
<feColorMatrix in="SourceAlpha" type="matrix" values="0 0 0 0 0 0 0 0 0 0 0 0 0 0 0 0 0 0 127 0"/>
<feOffset dy="4"/>
<feGaussianBlur stdDeviation="2"/>
<feColorMatrix type="matrix" values="0 0 0 0 0 0 0 0 0 0 0 0 0 0 0 0 0 0 0.25 0"/>
<feBlend mode="normal" in2="BackgroundImageFix" result="effect1_dropShadow"/>
<feBlend mode="normal" in="SourceGraphic" in2="effect1_dropShadow" result="shape"/>
</filter>
</defs>
</svg>
