<svg width="23" height="26" viewBox="0 0 23 26" fill="none" xmlns="http://www.w3.org/2000/svg">
<g filter="url(#filter0_d)">
<path d="M11.4361 9.50201C11.4543 9.50201 11.4726 9.50201 11.4945 9.50201C11.5018 9.50201 11.5091 9.50201 11.5164 9.50201C11.5274 9.50201 11.542 9.50201 11.5529 9.50201C12.6229 9.48375 13.4884 9.10761 14.1275 8.38821C15.5334 6.80332 15.2997 4.08638 15.2741 3.8271C15.1828 1.88068 14.2626 0.949471 13.503 0.514905C12.937 0.189894 12.276 0.0146072 11.5383 0H11.5128C11.5091 0 11.5018 0 11.4982 0H11.4763C11.0709 0 10.2748 0.0657326 9.51158 0.500298C8.7447 0.934863 7.80984 1.86608 7.71854 3.8271C7.69298 4.08638 7.45927 6.80332 8.86521 8.38821C9.50063 9.10761 10.3661 9.48375 11.4361 9.50201ZM8.69358 3.91839C8.69358 3.90744 8.69723 3.89648 8.69723 3.88918C8.81774 1.27083 10.6765 0.989641 11.4726 0.989641H11.4872C11.4945 0.989641 11.5055 0.989641 11.5164 0.989641C12.5024 1.01155 14.1786 1.41325 14.2918 3.88918C14.2918 3.90013 14.2918 3.91109 14.2955 3.91839C14.2991 3.94395 14.5547 6.42719 13.3935 7.73453C12.9333 8.25309 12.3198 8.50872 11.5128 8.51602C11.5055 8.51602 11.5018 8.51602 11.4945 8.51602C11.4872 8.51602 11.4836 8.51602 11.4763 8.51602C10.6729 8.50872 10.0557 8.25309 9.59923 7.73453C8.4416 6.43449 8.68993 3.9403 8.69358 3.91839Z" fill="#949494"/>
<path d="M18.999 14.0083C18.999 14.0046 18.999 14.001 18.999 13.9973C18.999 13.9681 18.9953 13.9389 18.9953 13.906C18.9734 13.183 18.9259 11.4922 17.3411 10.9517C17.3301 10.9481 17.3155 10.9444 17.3045 10.9408C15.6576 10.5208 14.2881 9.57133 14.2735 9.56038C14.0508 9.40335 13.744 9.45813 13.587 9.68089C13.43 9.90365 13.4847 10.2104 13.7075 10.3674C13.7696 10.4112 15.223 11.4228 17.0416 11.8902C17.8925 12.1933 17.9874 13.1026 18.013 13.9352C18.013 13.9681 18.013 13.9973 18.0166 14.0265C18.0203 14.3552 17.9984 14.8628 17.94 15.1549C17.3484 15.4909 15.0295 16.6522 11.5018 16.6522C7.98877 16.6522 5.65526 15.4873 5.06002 15.1513C5.00159 14.8592 4.97603 14.3516 4.98333 14.0229C4.98333 13.9937 4.98698 13.9645 4.98698 13.9316C5.01255 13.099 5.10749 12.1897 5.95836 11.8866C7.77697 11.4191 9.23039 10.4039 9.29247 10.3638C9.51523 10.2067 9.57 9.9 9.41298 9.67723C9.25595 9.45447 8.9492 9.3997 8.72644 9.55673C8.71183 9.56768 7.3497 10.5172 5.69543 10.9371C5.68083 10.9408 5.66987 10.9444 5.65892 10.9481C4.07403 11.4922 4.02656 13.183 4.00465 13.9024C4.00465 13.9352 4.00465 13.9645 4.00099 13.9937C4.00099 13.9973 4.00099 14.001 4.00099 14.0046C3.99734 14.1945 3.99369 15.1696 4.18724 15.6589C4.22375 15.7538 4.28949 15.8342 4.37713 15.889C4.48668 15.962 7.11234 17.6345 11.5055 17.6345C15.8986 17.6345 18.5242 15.9583 18.6338 15.889C18.7178 15.8342 18.7872 15.7538 18.8237 15.6589C19.0063 15.1732 19.0026 14.1982 18.999 14.0083Z" fill="#949494"/>
</g>
<defs>
<filter id="filter0_d" x="0" y="0" width="23" height="25.6345" filterUnits="userSpaceOnUse" color-interpolation-filters="sRGB">
<feFlood flood-opacity="0" result="BackgroundImageFix"/>
<feColorMatrix in="SourceAlpha" type="matrix" values="0 0 0 0 0 0 0 0 0 0 0 0 0 0 0 0 0 0 127 0"/>
<feOffset dy="4"/>
<feGaussianBlur stdDeviation="2"/>
<feColorMatrix type="matrix" values="0 0 0 0 0 0 0 0 0 0 0 0 0 0 0 0 0 0 0.25 0"/>
<feBlend mode="normal" in2="BackgroundImageFix" result="effect1_dropShadow"/>
<feBlend mode="normal" in="SourceGraphic" in2="effect1_dropShadow" result="shape"/>
</filter>
</defs>
</svg>
